<svg xmlns="http://www.w3.org/2000/svg" xmlns:xlink="http://www.w3.org/1999/xlink" width="500" zoomAndPan="magnify" viewBox="0 0 375 374.999991" height="500" preserveAspectRatio="xMidYMid meet" version="1.0"><defs><g/><clipPath id="17f5855586"><path d="M 133 156 L 292.753906 156 L 292.753906 254 L 133 254 Z M 133 156 " clip-rule="nonzero"/></clipPath><clipPath id="c7f15a600d"><path d="M 66.253906 28.316406 L 275 28.316406 L 275 264.566406 L 66.253906 264.566406 Z M 66.253906 28.316406 " clip-rule="nonzero"/></clipPath></defs><g clip-path="url(#17f5855586)"><path fill="#ffffff" d="M 249.773438 213.746094 C 256.863281 201.351562 260.914062 187 260.914062 171.699219 C 260.914062 166.644531 260.46875 161.691406 259.621094 156.878906 C 256.1875 175.964844 246.042969 192.722656 231.707031 204.605469 C 223.414062 211.484375 211.070312 210.089844 204.578125 201.488281 L 192.46875 185.441406 C 190.453125 182.769531 187.300781 181.199219 183.957031 181.199219 L 137.804688 181.199219 C 137.796875 181.199219 137.785156 181.203125 137.777344 181.203125 C 134.625 181.222656 132.585938 184.546875 134 187.367188 L 135.835938 191.023438 C 139.253906 197.828125 145.976562 202.347656 153.5625 202.945312 L 156.296875 203.160156 L 168.265625 204.105469 C 171.652344 204.371094 174.707031 206.246094 176.480469 209.144531 L 181.910156 218.023438 L 184.949219 222.992188 L 201.972656 250.839844 C 202.277344 251.335938 202.65625 251.773438 203.089844 252.132812 C 204.335938 253.175781 206.027344 253.613281 207.667969 253.207031 C 207.679688 253.203125 207.691406 253.199219 207.703125 253.199219 C 251.863281 242.300781 285.886719 205.667969 292.949219 160.121094 C 286.746094 183.484375 270.824219 202.894531 249.773438 213.746094 " fill-opacity="1" fill-rule="nonzero"/></g><g clip-path="url(#c7f15a600d)"><path fill="#0097b2" d="M 173.222656 211.136719 C 172.09375 209.285156 170.128906 208.078125 167.964844 207.910156 L 153.261719 206.75 C 144.398438 206.054688 136.414062 200.683594 132.425781 192.738281 L 130.6875 189.273438 C 129.449219 186.808594 129.421875 183.863281 130.785156 181.46875 C 132.195312 178.996094 134.734375 177.476562 137.550781 177.390625 L 137.804688 177.382812 L 152.582031 177.382812 C 147.765625 169.78125 139.082031 165.5 130.097656 166.34375 L 114.742188 167.777344 C 108.167969 168.390625 102.257812 163.855469 101.046875 157.363281 C 100.148438 152.550781 99.679688 147.585938 99.679688 142.511719 C 99.679688 116.789062 111.726562 93.878906 130.488281 79.117188 C 111.902344 91.355469 97.4375 109.34375 89.632812 130.550781 C 96.664062 79.460938 140.488281 40.109375 193.507812 40.109375 C 226.332031 40.109375 255.625 55.191406 274.855469 78.796875 C 254.417969 48.53125 219.839844 28.605469 180.597656 28.503906 C 117.785156 28.339844 66.378906 79.523438 66.285156 142.339844 C 66.253906 164.453125 72.523438 185.097656 83.390625 202.585938 C 83.617188 202.957031 83.84375 203.324219 84.078125 203.691406 L 99.296875 201.113281 C 106.09375 199.964844 111.691406 206.535156 109.378906 213.03125 C 109.316406 213.210938 109.273438 213.308594 109.273438 213.308594 C 119.070312 216.871094 117.417969 226.414062 117.417969 226.414062 C 126.070312 230.359375 122.507812 238.503906 122.507812 238.503906 C 125.566406 239.769531 126.640625 242.242188 126.914062 243.050781 C 127.058594 243.460938 127.214844 243.871094 127.371094 244.277344 L 133.289062 259.464844 C 134.308594 262.074219 137.433594 264.210938 140.234375 264.210938 C 143.769531 264.210938 146.21875 260.675781 144.972656 257.367188 L 142.203125 249.992188 L 138.511719 240.160156 C 138.253906 239.472656 138.722656 238.722656 139.46875 238.667969 C 139.957031 238.632812 140.40625 238.949219 140.59375 239.402344 L 145.445312 251.089844 L 149.039062 259.742188 C 150.277344 262.71875 153.542969 264.429688 156.640625 263.523438 C 160.347656 262.441406 162.195312 258.289062 160.519531 254.808594 C 160.519531 254.804688 160.515625 254.800781 160.515625 254.796875 L 151.625 236.4375 C 151.246094 235.648438 151.765625 234.722656 152.636719 234.640625 C 153.140625 234.589844 153.625 234.851562 153.863281 235.296875 L 164.683594 255.453125 L 166.023438 257.953125 C 167.34375 260.417969 170.242188 261.703125 172.898438 260.824219 C 174.960938 260.140625 176.335938 258.414062 176.703125 256.460938 C 176.921875 255.269531 176.769531 253.996094 176.164062 252.824219 L 167.699219 236.417969 C 167.328125 235.695312 167.601562 234.769531 168.351562 234.457031 C 169.019531 234.183594 169.761719 234.464844 170.089844 235.082031 L 179.65625 253.152344 C 180.429688 254.613281 181.582031 255.742188 182.925781 256.492188 C 185.167969 257.734375 187.949219 257.910156 190.429688 256.738281 C 190.910156 256.515625 191.347656 256.242188 191.757812 255.945312 C 195.148438 253.484375 196.214844 248.742188 193.941406 245.019531 L 173.222656 211.136719 " fill-opacity="1" fill-rule="nonzero"/></g><path fill="#ffffff" d="M 90.519531 217.988281 L 102.492188 216.003906 C 106.082031 215.40625 108.511719 212.011719 107.914062 208.417969 C 107.320312 204.828125 103.925781 202.398438 100.332031 202.992188 L 88.363281 204.980469 C 84.769531 205.574219 82.339844 208.972656 82.9375 212.5625 C 83.53125 216.15625 86.929688 218.582031 90.519531 217.988281 " fill-opacity="1" fill-rule="nonzero"/><path fill="#ffffff" d="M 114.023438 221.398438 C 113.425781 217.804688 110.03125 215.375 106.4375 215.972656 L 90.101562 219.097656 C 86.507812 219.691406 84.078125 223.085938 84.675781 226.679688 C 85.269531 230.269531 88.667969 232.699219 92.257812 232.105469 L 108.597656 228.980469 C 112.191406 228.386719 114.617188 224.988281 114.023438 221.398438 " fill-opacity="1" fill-rule="nonzero"/><path fill="#ffffff" d="M 119.539062 234.972656 C 118.941406 231.378906 115.546875 228.949219 111.953125 229.546875 L 99.984375 231.53125 C 96.390625 232.125 93.960938 235.523438 94.558594 239.113281 C 95.152344 242.707031 98.550781 245.136719 102.140625 244.539062 L 114.109375 242.554688 C 117.703125 241.957031 120.132812 238.5625 119.539062 234.972656 " fill-opacity="1" fill-rule="nonzero"/><path fill="#ffffff" d="M 120.265625 242.269531 L 110.4375 243.835938 C 106.84375 244.429688 104.414062 247.824219 105.011719 251.417969 C 105.605469 255.007812 109.003906 257.4375 112.59375 256.84375 L 122.425781 255.277344 C 126.019531 254.683594 128.445312 251.285156 127.851562 247.695312 C 127.253906 244.101562 123.859375 241.671875 120.265625 242.269531 " fill-opacity="1" fill-rule="nonzero"/><g fill="#ffffff" fill-opacity="1"><g transform="translate(18.461978, 317.98563)"><g><path d="M 28.5 -29.53125 C 28.9375 -29.53125 29.15625 -29.3125 29.15625 -28.875 L 29.15625 -0.625 C 29.15625 -0.195312 28.9375 0.015625 28.5 0.015625 L 24.3125 0.015625 C 23.894531 0.015625 23.6875 -0.195312 23.6875 -0.625 L 23.6875 -9.375 L 9.015625 -9.375 L 9.015625 -0.625 C 9.015625 -0.195312 8.800781 0.015625 8.375 0.015625 L 4.171875 0.015625 C 3.734375 0.015625 3.515625 -0.195312 3.515625 -0.625 L 3.515625 -28.875 C 3.515625 -29.3125 3.734375 -29.53125 4.171875 -29.53125 L 8.375 -29.53125 C 8.800781 -29.53125 9.015625 -29.3125 9.015625 -28.875 L 9.015625 -14.1875 L 23.6875 -14.1875 L 23.6875 -28.875 C 23.6875 -29.3125 23.894531 -29.53125 24.3125 -29.53125 Z M 28.5 -29.53125 "/></g></g></g><g fill="#ffffff" fill-opacity="1"><g transform="translate(55.107221, 317.98563)"><g><path d="M 24.875 -5.203125 C 25.238281 -5.203125 25.523438 -5.101562 25.734375 -4.90625 C 25.953125 -4.71875 26.0625 -4.453125 26.0625 -4.109375 L 26.0625 -0.859375 C 26.0625 -0.597656 25.976562 -0.390625 25.8125 -0.234375 C 25.65625 -0.078125 25.441406 0 25.171875 0 L 4.390625 0 C 3.804688 0 3.515625 -0.285156 3.515625 -0.859375 L 3.515625 -28.625 C 3.515625 -29.207031 3.804688 -29.5 4.390625 -29.5 L 24.75 -29.5 C 25.039062 -29.5 25.265625 -29.421875 25.421875 -29.265625 C 25.578125 -29.109375 25.65625 -28.898438 25.65625 -28.640625 L 25.65625 -25.1875 C 25.65625 -24.59375 25.351562 -24.296875 24.75 -24.296875 L 9.015625 -24.296875 L 9.015625 -16.15625 L 21.34375 -16.15625 C 21.664062 -16.15625 21.914062 -16.078125 22.09375 -15.921875 C 22.28125 -15.765625 22.375 -15.539062 22.375 -15.25 L 22.375 -12 C 22.375 -11.738281 22.28125 -11.523438 22.09375 -11.359375 C 21.914062 -11.203125 21.664062 -11.125 21.34375 -11.125 L 9.015625 -11.125 L 9.015625 -5.203125 Z M 24.875 -5.203125 "/></g></g></g><g fill="#ffffff" fill-opacity="1"><g transform="translate(87.113157, 317.98563)"><g><path d="M 28.5625 -0.953125 C 28.6875 -0.671875 28.691406 -0.4375 28.578125 -0.25 C 28.460938 -0.0625 28.242188 0.03125 27.921875 0.03125 L 23.75 0.03125 C 23.53125 0.03125 23.332031 -0.0390625 23.15625 -0.1875 C 22.976562 -0.332031 22.84375 -0.507812 22.75 -0.71875 L 21.578125 -3.59375 L 8.015625 -3.59375 L 6.828125 -0.734375 C 6.742188 -0.523438 6.613281 -0.347656 6.4375 -0.203125 C 6.269531 -0.0546875 6.066406 0.015625 5.828125 0.015625 L 1.671875 0.015625 C 1.347656 0.015625 1.125 -0.0703125 1 -0.25 C 0.875 -0.4375 0.878906 -0.675781 1.015625 -0.96875 L 13.578125 -29.125 C 13.679688 -29.351562 13.832031 -29.535156 14.03125 -29.671875 C 14.226562 -29.804688 14.429688 -29.875 14.640625 -29.875 L 14.890625 -29.875 C 15.128906 -29.875 15.34375 -29.800781 15.53125 -29.65625 C 15.71875 -29.519531 15.859375 -29.335938 15.953125 -29.109375 Z M 9.9375 -8.296875 L 19.625 -8.296875 L 14.796875 -20.03125 Z M 9.9375 -8.296875 "/></g></g></g><g fill="#ffffff" fill-opacity="1"><g transform="translate(120.652597, 317.98563)"><g><path d="M 22.328125 -4.8125 C 22.753906 -4.8125 22.96875 -4.59375 22.96875 -4.15625 L 22.96875 -0.65625 C 22.96875 -0.21875 22.753906 0 22.328125 0 L 4.171875 0 C 3.734375 0 3.515625 -0.21875 3.515625 -0.65625 L 3.515625 -28.875 C 3.515625 -29.3125 3.734375 -29.53125 4.171875 -29.53125 L 8.375 -29.53125 C 8.800781 -29.53125 9.015625 -29.3125 9.015625 -28.875 L 9.015625 -4.8125 Z M 22.328125 -4.8125 "/></g></g></g><g fill="#ffffff" fill-opacity="1"><g transform="translate(148.349222, 317.98563)"><g><path d="M 1.140625 -25.578125 L 1.140625 -28.640625 C 1.140625 -29.210938 1.425781 -29.5 2 -29.5 L 22.21875 -29.5 C 22.46875 -29.5 22.664062 -29.421875 22.8125 -29.265625 C 22.96875 -29.109375 23.046875 -28.898438 23.046875 -28.640625 L 23.046875 -25.578125 C 23.046875 -24.992188 22.769531 -24.703125 22.21875 -24.703125 L 14.8125 -24.703125 L 14.8125 -0.828125 C 14.8125 -0.265625 14.519531 0.015625 13.9375 0.015625 L 10.1875 0.015625 C 9.625 0.015625 9.34375 -0.265625 9.34375 -0.828125 L 9.34375 -24.703125 L 2 -24.703125 C 1.738281 -24.703125 1.53125 -24.773438 1.375 -24.921875 C 1.21875 -25.066406 1.140625 -25.285156 1.140625 -25.578125 Z M 1.140625 -25.578125 "/></g></g></g><g fill="#ffffff" fill-opacity="1"><g transform="translate(176.511718, 317.98563)"><g><path d="M 28.5 -29.53125 C 28.9375 -29.53125 29.15625 -29.3125 29.15625 -28.875 L 29.15625 -0.625 C 29.15625 -0.195312 28.9375 0.015625 28.5 0.015625 L 24.3125 0.015625 C 23.894531 0.015625 23.6875 -0.195312 23.6875 -0.625 L 23.6875 -9.375 L 9.015625 -9.375 L 9.015625 -0.625 C 9.015625 -0.195312 8.800781 0.015625 8.375 0.015625 L 4.171875 0.015625 C 3.734375 0.015625 3.515625 -0.195312 3.515625 -0.625 L 3.515625 -28.875 C 3.515625 -29.3125 3.734375 -29.53125 4.171875 -29.53125 L 8.375 -29.53125 C 8.800781 -29.53125 9.015625 -29.3125 9.015625 -28.875 L 9.015625 -14.1875 L 23.6875 -14.1875 L 23.6875 -28.875 C 23.6875 -29.3125 23.894531 -29.53125 24.3125 -29.53125 Z M 28.5 -29.53125 "/></g></g></g><g fill="#ffffff" fill-opacity="1"><g transform="translate(213.156957, 317.98563)"><g><path d="M 23.015625 -7.09375 C 23.253906 -7.269531 23.5 -7.347656 23.75 -7.328125 C 24.007812 -7.316406 24.203125 -7.222656 24.328125 -7.046875 L 26.546875 -3.671875 C 26.648438 -3.523438 26.660156 -3.34375 26.578125 -3.125 C 26.503906 -2.90625 26.359375 -2.71875 26.140625 -2.5625 C 25.359375 -1.957031 24.460938 -1.425781 23.453125 -0.96875 C 22.453125 -0.519531 21.410156 -0.171875 20.328125 0.078125 C 19.253906 0.335938 18.210938 0.46875 17.203125 0.46875 C 15.484375 0.46875 13.84375 0.21875 12.28125 -0.28125 C 10.726562 -0.78125 9.3125 -1.488281 8.03125 -2.40625 C 6.75 -3.320312 5.640625 -4.410156 4.703125 -5.671875 C 3.765625 -6.941406 3.035156 -8.335938 2.515625 -9.859375 C 2.003906 -11.390625 1.75 -13.007812 1.75 -14.71875 C 1.75 -16.425781 2.003906 -18.039062 2.515625 -19.5625 C 3.035156 -21.09375 3.765625 -22.492188 4.703125 -23.765625 C 5.640625 -25.035156 6.75 -26.128906 8.03125 -27.046875 C 9.3125 -27.960938 10.726562 -28.671875 12.28125 -29.171875 C 13.84375 -29.679688 15.484375 -29.9375 17.203125 -29.9375 C 18.179688 -29.9375 19.210938 -29.8125 20.296875 -29.5625 C 21.390625 -29.320312 22.453125 -28.972656 23.484375 -28.515625 C 24.523438 -28.054688 25.445312 -27.503906 26.25 -26.859375 C 26.5 -26.671875 26.632812 -26.472656 26.65625 -26.265625 C 26.6875 -26.054688 26.648438 -25.878906 26.546875 -25.734375 L 24.328125 -22.390625 C 24.222656 -22.222656 24.050781 -22.117188 23.8125 -22.078125 C 23.570312 -22.046875 23.320312 -22.132812 23.0625 -22.34375 C 22.25 -23.039062 21.316406 -23.570312 20.265625 -23.9375 C 19.222656 -24.300781 18.203125 -24.484375 17.203125 -24.484375 C 15.816406 -24.484375 14.519531 -24.234375 13.3125 -23.734375 C 12.101562 -23.234375 11.039062 -22.535156 10.125 -21.640625 C 9.207031 -20.753906 8.492188 -19.71875 7.984375 -18.53125 C 7.472656 -17.34375 7.21875 -16.070312 7.21875 -14.71875 C 7.21875 -13.351562 7.476562 -12.082031 8 -10.90625 C 8.519531 -9.726562 9.234375 -8.695312 10.140625 -7.8125 C 11.054688 -6.925781 12.113281 -6.238281 13.3125 -5.75 C 14.519531 -5.257812 15.816406 -5.015625 17.203125 -5.015625 C 18.160156 -5.015625 19.160156 -5.191406 20.203125 -5.546875 C 21.253906 -5.910156 22.191406 -6.425781 23.015625 -7.09375 Z M 23.015625 -7.09375 "/></g></g></g><g fill="#ffffff" fill-opacity="1"><g transform="translate(245.725825, 317.98563)"><g><path d="M 28.5625 -0.953125 C 28.6875 -0.671875 28.691406 -0.4375 28.578125 -0.25 C 28.460938 -0.0625 28.242188 0.03125 27.921875 0.03125 L 23.75 0.03125 C 23.53125 0.03125 23.332031 -0.0390625 23.15625 -0.1875 C 22.976562 -0.332031 22.84375 -0.507812 22.75 -0.71875 L 21.578125 -3.59375 L 8.015625 -3.59375 L 6.828125 -0.734375 C 6.742188 -0.523438 6.613281 -0.347656 6.4375 -0.203125 C 6.269531 -0.0546875 6.066406 0.015625 5.828125 0.015625 L 1.671875 0.015625 C 1.347656 0.015625 1.125 -0.0703125 1 -0.25 C 0.875 -0.4375 0.878906 -0.675781 1.015625 -0.96875 L 13.578125 -29.125 C 13.679688 -29.351562 13.832031 -29.535156 14.03125 -29.671875 C 14.226562 -29.804688 14.429688 -29.875 14.640625 -29.875 L 14.890625 -29.875 C 15.128906 -29.875 15.34375 -29.800781 15.53125 -29.65625 C 15.71875 -29.519531 15.859375 -29.335938 15.953125 -29.109375 Z M 9.9375 -8.296875 L 19.625 -8.296875 L 14.796875 -20.03125 Z M 9.9375 -8.296875 "/></g></g></g><g fill="#ffffff" fill-opacity="1"><g transform="translate(279.265257, 317.98563)"><g><path d="M 22.03125 -8.71875 L 26 -0.984375 C 26.144531 -0.703125 26.164062 -0.460938 26.0625 -0.265625 C 25.957031 -0.078125 25.75 0.015625 25.4375 0.015625 L 21.171875 0.015625 C 20.984375 0.015625 20.796875 -0.0507812 20.609375 -0.1875 C 20.421875 -0.320312 20.273438 -0.492188 20.171875 -0.703125 L 17.125 -6.953125 C 16.800781 -6.898438 16.46875 -6.863281 16.125 -6.84375 C 15.789062 -6.820312 15.453125 -6.8125 15.109375 -6.8125 L 9.015625 -6.8125 L 9.015625 -0.828125 C 9.015625 -0.578125 8.925781 -0.375 8.75 -0.21875 C 8.582031 -0.0625 8.367188 0.015625 8.109375 0.015625 L 4.390625 0.015625 C 4.140625 0.015625 3.929688 -0.0625 3.765625 -0.21875 C 3.597656 -0.375 3.515625 -0.578125 3.515625 -0.828125 L 3.515625 -28.65625 C 3.515625 -28.90625 3.597656 -29.109375 3.765625 -29.265625 C 3.929688 -29.421875 4.140625 -29.5 4.390625 -29.5 L 5.359375 -29.5 C 5.929688 -29.5 6.488281 -29.5 7.03125 -29.5 C 7.582031 -29.5 7.976562 -29.5 8.21875 -29.5 L 15.109375 -29.5 C 16.835938 -29.5 18.425781 -29.21875 19.875 -28.65625 C 21.332031 -28.09375 22.59375 -27.296875 23.65625 -26.265625 C 24.726562 -25.242188 25.554688 -24.035156 26.140625 -22.640625 C 26.734375 -21.242188 27.03125 -19.71875 27.03125 -18.0625 C 27.03125 -16.050781 26.582031 -14.238281 25.6875 -12.625 C 24.789062 -11.019531 23.570312 -9.71875 22.03125 -8.71875 Z M 14.75 -11.390625 C 16.070312 -11.390625 17.242188 -11.675781 18.265625 -12.25 C 19.296875 -12.820312 20.097656 -13.613281 20.671875 -14.625 C 21.253906 -15.632812 21.546875 -16.789062 21.546875 -18.09375 C 21.546875 -19.050781 21.375 -19.929688 21.03125 -20.734375 C 20.695312 -21.535156 20.222656 -22.234375 19.609375 -22.828125 C 19.003906 -23.429688 18.285156 -23.894531 17.453125 -24.21875 C 16.628906 -24.539062 15.726562 -24.703125 14.75 -24.703125 L 9.015625 -24.703125 L 9.015625 -11.390625 Z M 14.75 -11.390625 "/></g></g></g><g fill="#ffffff" fill-opacity="1"><g transform="translate(312.688238, 317.98563)"><g><path d="M 24.875 -5.203125 C 25.238281 -5.203125 25.523438 -5.101562 25.734375 -4.90625 C 25.953125 -4.71875 26.0625 -4.453125 26.0625 -4.109375 L 26.0625 -0.859375 C 26.0625 -0.597656 25.976562 -0.390625 25.8125 -0.234375 C 25.65625 -0.078125 25.441406 0 25.171875 0 L 4.390625 0 C 3.804688 0 3.515625 -0.285156 3.515625 -0.859375 L 3.515625 -28.625 C 3.515625 -29.207031 3.804688 -29.5 4.390625 -29.5 L 24.75 -29.5 C 25.039062 -29.5 25.265625 -29.421875 25.421875 -29.265625 C 25.578125 -29.109375 25.65625 -28.898438 25.65625 -28.640625 L 25.65625 -25.1875 C 25.65625 -24.59375 25.351562 -24.296875 24.75 -24.296875 L 9.015625 -24.296875 L 9.015625 -16.15625 L 21.34375 -16.15625 C 21.664062 -16.15625 21.914062 -16.078125 22.09375 -15.921875 C 22.28125 -15.765625 22.375 -15.539062 22.375 -15.25 L 22.375 -12 C 22.375 -11.738281 22.28125 -11.523438 22.09375 -11.359375 C 21.914062 -11.203125 21.664062 -11.125 21.34375 -11.125 L 9.015625 -11.125 L 9.015625 -5.203125 Z M 24.875 -5.203125 "/></g></g></g></svg>